<svg width="18" height="18" viewBox="0 0 18 18" fill="none" xmlns="http://www.w3.org/2000/svg">
<g clip-path="url(#clip0_116_528)">
<path fill-rule="evenodd" clip-rule="evenodd" d="M6.16846 1.21436C3.56594 1.21436 1.8173 3.04121 1.8173 5.75996V12.0958C1.8173 14.8146 3.56594 16.6414 6.16846 16.6414H12.8932C15.4957 16.6414 17.2444 14.8146 17.2444 12.0958V5.75996C17.2444 3.04121 15.4957 1.21436 12.8932 1.21436H6.16846ZM6.16846 2.29066H12.8932C14.8822 2.29066 16.1681 3.65183 16.1681 5.75996V12.0958C16.1681 14.204 14.8822 15.5651 12.8932 15.5651H6.16846C4.17872 15.5651 2.89361 14.204 2.89361 12.0958V5.75996C2.89361 3.65183 4.17872 2.29066 6.16846 2.29066ZM12.8523 7.09997C12.5552 7.09997 12.3141 7.34106 12.3141 7.63812V12.5604C12.3141 12.8575 12.5552 13.0986 12.8523 13.0986C13.1493 13.0986 13.3904 12.8575 13.3904 12.5604V7.63812C13.3904 7.34106 13.1493 7.09997 12.8523 7.09997ZM9.50351 4.74357C9.20644 4.74357 8.96535 4.98466 8.96535 5.28172V12.5597C8.96535 12.8568 9.20644 13.0979 9.50351 13.0979C9.80057 13.0979 10.0417 12.8568 10.0417 12.5597V5.28172C10.0417 4.98466 9.80057 4.74357 9.50351 4.74357ZM6.20979 9.70105C5.91273 9.70105 5.67163 9.94214 5.67163 10.2392V12.5597C5.67163 12.8568 5.91273 13.0979 6.20979 13.0979C6.50685 13.0979 6.74794 12.8568 6.74794 12.5597V10.2392C6.74794 9.94214 6.50685 9.70105 6.20979 9.70105Z" fill="#B1B1B1"/>
</g>
<defs>
<clipPath id="clip0_116_528">
<rect width="17.2209" height="17.2209" fill="white" transform="matrix(-1 0 0 1 17.9617 0.49707)"/>
</clipPath>
</defs>
</svg>
