<svg width="19" height="18" viewBox="0 0 19 18" fill="none" xmlns="http://www.w3.org/2000/svg">
<g clip-path="url(#clip0_116_520)">
<path fill-rule="evenodd" clip-rule="evenodd" d="M8.29151 10.9777C7.4276 10.9777 6.72441 11.6758 6.72441 12.534V14.7412C6.72441 14.9256 6.57659 15.0734 6.38716 15.0777H5.01954C3.94179 15.0777 3.06568 14.2123 3.06568 13.1489V6.88914C3.0707 6.52319 3.24506 6.17877 3.54428 5.94988L8.27501 2.17706C8.91003 1.67406 9.79834 1.67406 10.4355 2.17849L15.134 5.94844C15.4447 6.18451 15.619 6.52893 15.6226 6.90133V13.1489C15.6226 14.2123 14.7465 15.0777 13.6687 15.0777H12.2882C12.0938 15.0777 11.9359 14.9234 11.9359 14.734C11.9359 14.6924 11.9309 14.6508 11.9223 14.6113V12.534C11.9223 11.6809 11.2234 10.9834 10.3659 10.9777H8.29151ZM5.01954 16.154H6.40008C7.19081 16.1353 7.80072 15.5147 7.80072 14.7412V12.534C7.80072 12.2692 8.021 12.054 8.29151 12.054H10.3623C10.6271 12.0554 10.846 12.2714 10.846 12.534V14.734C10.846 14.7878 10.8531 14.8395 10.8682 14.8883C10.9457 15.5986 11.5527 16.154 12.2882 16.154H13.6687C15.3399 16.154 16.6989 14.8057 16.6989 13.1489V6.89631C16.6917 6.18308 16.3631 5.53012 15.7955 5.10031L11.1064 1.33682C10.0739 0.518825 8.63521 0.518825 7.60483 1.33538L2.88199 5.10246C2.32733 5.52509 1.9987 6.17662 1.98937 6.88124V13.1489C1.98937 14.8057 3.34839 16.154 5.01954 16.154Z" fill="#C4C4C4"/>
</g>
<defs>
<clipPath id="clip0_116_520">
<rect width="17.2209" height="17.2209" fill="white" transform="matrix(-1 0 0 1 18.1337 0.00561523)"/>
</clipPath>
</defs>
</svg>
