<svg width="21" height="20" viewBox="0 0 21 20" fill="none" xmlns="http://www.w3.org/2000/svg">
<path d="M0.592047 9.89233L3.40986 7.08291L0.592047 9.89233ZM0.592047 9.89233L0.533819 9.95926C0.531157 9.96296 0.528547 9.96671 0.525995 9.97049C0.517502 9.98358 0.509876 9.99624 0.503166 10.0085L0.503193 10.0085L0.501259 10.0119C0.497225 10.019 0.492916 10.0274 0.488358 10.0373C0.483543 10.0483 0.479528 10.0579 0.476095 10.0669L0.475195 10.0691C0.47114 10.0794 0.467274 10.0907 0.463642 10.103C0.460485 10.1143 0.457863 10.1247 0.4557 10.1344L0.455151 10.1368C0.452757 10.147 0.450706 10.1579 0.44898 10.1696C0.44775 10.1797 0.44676 10.1885 0.446049 10.1967L0.445776 10.1994C0.444725 10.2099 0.444115 10.2204 0.443903 10.2314L0.447927 10.2804L0.448038 10.2804L0.448416 10.2877L0.449501 10.3087L0.450264 10.3191C0.451674 10.3277 0.453312 10.3362 0.455173 10.3447C0.457916 10.3562 0.460615 10.3666 0.463394 10.376L0.463987 10.3781C0.467133 10.3893 0.470915 10.4007 0.475401 10.4124C0.47967 10.423 0.483734 10.4326 0.487749 10.4413L0.48917 10.4445C0.492811 10.4528 0.497149 10.4616 0.50235 10.4711C0.510056 10.4847 0.517778 10.4973 0.525526 10.5089L0.525574 10.5088L0.528395 10.5132C0.530907 10.5172 0.534485 10.5223 0.53956 10.5291C0.555433 10.55 0.57239 10.5692 0.590355 10.5867L0.590368 10.5866L0.592426 10.5887L3.41009 13.3988L3.41045 13.3992C3.50408 13.4929 3.62695 13.5399 3.74979 13.5399C3.87391 13.5399 3.99695 13.4928 4.08991 13.3984L4.09049 13.3978C4.27861 13.2081 4.27765 12.9028 4.08943 12.7149L4.08939 12.7149L2.5077 11.1356L2.09471 10.7232H2.67832H12.5396C12.8052 10.7232 13.0215 10.5071 13.0215 10.2403C13.0215 9.97341 12.8052 9.75731 12.5396 9.75731H2.67639H2.09202L2.50593 9.34479L4.08943 7.76659C4.27802 7.57837 4.27911 7.27322 4.09078 7.08397L4.09049 7.08368C3.9036 6.89524 3.59967 6.89433 3.41007 7.08271L0.592047 9.89233ZM0.445139 10.3264L0.210932 10.3517C0.213373 10.3675 0.21633 10.3831 0.21979 10.3986L0.445139 10.3264ZM0.445139 10.3264L0.450396 10.3261L0.45038 10.3258L0.445139 10.3264ZM11.0329 0.822535C8.80739 0.822535 6.99581 2.63627 6.99581 4.86588V5.76612C6.99581 6.03298 7.2121 6.24908 7.47771 6.24908C7.74331 6.24908 7.9596 6.03298 7.9596 5.76612V4.86588C7.9596 3.168 9.33769 1.78846 11.0329 1.78846H15.7348C17.4283 1.78846 18.8052 3.16822 18.8052 4.86588V15.6156C18.8052 17.3124 17.4283 18.6921 15.7348 18.6921H11.0223C9.33389 18.6921 7.9596 17.3164 7.9596 15.6262V14.7154C7.9596 14.4485 7.74331 14.2324 7.47771 14.2324C7.2121 14.2324 6.99581 14.4485 6.99581 14.7154V15.6262C6.99581 17.8499 8.80343 19.658 11.0223 19.658H15.7348C17.9583 19.658 19.769 17.8453 19.769 15.6156V4.86588C19.769 2.63613 17.9583 0.822535 15.7348 0.822535H11.0329Z" fill="#B1B1B1" stroke="#B1B1B1" stroke-width="0.482961"/>
</svg>
