<svg width="19" height="18" viewBox="0 0 19 18" fill="none" xmlns="http://www.w3.org/2000/svg">
<path fill-rule="evenodd" clip-rule="evenodd" d="M3.89792 13.7117C3.89792 16.0767 7.14119 16.3501 9.58011 16.3501L9.75464 16.3499C11.3085 16.3461 15.2637 16.248 15.2637 13.6973C15.2637 11.3806 12.1508 11.071 9.73044 11.0593L9.40558 11.0591C7.85181 11.0629 3.89792 11.161 3.89792 13.7117ZM9.58011 12.1352C12.6375 12.1352 14.1874 12.6605 14.1874 13.6973C14.1874 14.7435 12.6375 15.2738 9.58011 15.2738C6.52339 15.2738 4.97423 14.7485 4.97423 13.7117C4.97423 12.6655 6.52339 12.1352 9.58011 12.1352ZM9.58011 2.09229C7.47915 2.09229 5.77069 3.80146 5.77069 5.90242C5.77069 8.00337 7.47915 9.71183 9.58011 9.71183H9.60307C11.6997 9.70537 13.3981 7.99548 13.391 5.90026C13.391 3.80146 11.6818 2.09229 9.58011 2.09229ZM9.58011 3.11693C11.1164 3.11693 12.3663 4.36617 12.3663 5.90242C12.3713 7.43364 11.1307 8.68216 9.60092 8.6879L9.58011 9.20022V8.6879C8.04457 8.6879 6.79534 7.43795 6.79534 5.90242C6.79534 4.36617 8.04457 3.11693 9.58011 3.11693Z" fill="#C4C4C4"/>
</svg>
