<svg width="25" height="25" viewBox="0 0 25 25" fill="none" xmlns="http://www.w3.org/2000/svg">
<path fill-rule="evenodd" clip-rule="evenodd" d="M11.6018 15.0136L15.255 20.9404C15.4148 21.2002 15.6645 21.1972 15.7654 21.1832C15.8663 21.1692 16.1091 21.1073 16.197 20.8126L20.7652 5.38374C20.8451 5.11103 20.6983 4.92522 20.6323 4.85929C20.5684 4.79336 20.3856 4.65251 20.1209 4.72743L4.68104 9.24869C4.38835 9.3346 4.32441 9.58034 4.31043 9.68124C4.29644 9.78413 4.29245 10.0389 4.55118 10.2017L10.5459 13.9508L15.8423 8.59837C16.133 8.30468 16.6075 8.30168 16.9022 8.59238C17.1969 8.88307 17.1989 9.35858 16.9082 9.65227L11.6018 15.0136ZM15.6875 22.6876C14.9922 22.6876 14.3549 22.334 13.9793 21.7266L10.1064 15.4422L3.75701 11.4714C3.07273 11.0428 2.7151 10.2796 2.82598 9.47745C2.93587 8.67529 3.48629 8.03796 4.25948 7.8112L19.6993 3.28994C20.4096 3.08216 21.1708 3.27895 21.6942 3.8004C22.2177 4.32685 22.4125 5.09604 22.2007 5.8093L17.6325 21.2371C17.4037 22.0133 16.7644 22.5617 15.9642 22.6686C15.8703 22.6806 15.7794 22.6876 15.6875 22.6876Z" fill="#FBFBFB"/>
</svg>
