<svg width="28" height="28" viewBox="0 0 28 28" fill="none" xmlns="http://www.w3.org/2000/svg">
<path fill-rule="evenodd" clip-rule="evenodd" d="M13.8643 5.14111C18.4234 5.14442 22.5173 8.33997 24.8167 13.6905C24.9071 13.8988 24.9071 14.1347 24.8167 14.3431C22.5184 19.6947 18.4234 22.8902 13.8643 22.8935H13.8577C9.29861 22.8902 5.2047 19.6947 2.90531 14.3431C2.81603 14.1347 2.81603 13.8988 2.90531 13.6905C5.2047 8.33997 9.29971 5.14442 13.8577 5.14111H13.8643ZM13.861 6.79455C10.0735 6.79565 6.61894 9.48856 4.56867 14.0168C6.61894 18.5461 10.0724 21.239 13.861 21.2401C17.6496 21.239 21.1031 18.5461 23.1533 14.0168C21.1031 9.48856 17.6496 6.79565 13.861 6.79455ZM13.8607 9.70549C16.2383 9.70549 18.1728 11.64 18.1728 14.0177C18.1728 16.3942 16.2383 18.3276 13.8607 18.3276C11.483 18.3276 9.5496 16.3942 9.5496 14.0177C9.5496 11.64 11.483 9.70549 13.8607 9.70549ZM13.8607 11.3589C12.3946 11.3589 11.203 12.5516 11.203 14.0177C11.203 15.4826 12.3946 16.6742 13.8607 16.6742C15.3267 16.6742 16.5194 15.4826 16.5194 14.0177C16.5194 12.5516 15.3267 11.3589 13.8607 11.3589Z" fill="#FBFBFB"/>
</svg>
