<svg width="24" height="24" viewBox="0 0 24 24" fill="none" xmlns="http://www.w3.org/2000/svg">
<path fill-rule="evenodd" clip-rule="evenodd" d="M12.0614 13.9804L12.1703 13.9804L12.4139 13.9813C14.276 13.9935 18.5313 14.1816 18.5313 17.0659C18.5313 19.9312 14.4243 20.118 12.443 20.1302L11.7089 20.1302C9.84669 20.118 5.59053 19.9301 5.59053 17.0495C5.59053 14.1806 9.84669 13.9935 11.7089 13.9813L11.9525 13.9804C11.9903 13.9804 12.0266 13.9804 12.0614 13.9804ZM12.0614 15.4272C9.76974 15.4272 7.03729 15.7088 7.03729 17.0495C7.03729 18.3598 9.60664 18.6661 11.8519 18.6835L12.0614 18.6843C14.3531 18.6843 17.0846 18.4036 17.0846 17.0659C17.0846 15.7117 14.3531 15.4272 12.0614 15.4272ZM19.7327 13.589C22.0697 13.9391 22.5606 15.0367 22.5606 15.8961C22.5606 16.4208 22.3542 17.3785 20.975 17.9042C20.8901 17.936 20.8033 17.9515 20.7175 17.9515C20.4262 17.9515 20.1513 17.774 20.0413 17.4856C19.8986 17.1123 20.0867 16.6938 20.4599 16.552C21.1139 16.3031 21.1139 16.0282 21.1139 15.8961C21.1139 15.4736 20.5766 15.1785 19.5176 15.0203C19.1231 14.9605 18.8502 14.5931 18.909 14.1966C18.9678 13.8012 19.3344 13.5379 19.7327 13.589ZM5.21283 14.1966C5.27167 14.5931 4.99871 14.9605 4.60423 15.0203C3.5452 15.1785 3.00797 15.4736 3.00797 15.8961C3.00797 16.0282 3.00797 16.3022 3.66287 16.552C4.03613 16.6938 4.22421 17.1123 4.08147 17.4856C3.97151 17.774 3.69663 17.9515 3.40535 17.9515C3.31951 17.9515 3.2327 17.936 3.14782 17.9042C1.76761 17.3776 1.56121 16.4198 1.56121 15.8961C1.56121 15.0377 2.05214 13.9391 4.39011 13.589C4.78845 13.5389 5.15303 13.8012 5.21283 14.1966ZM12.0614 3.93604C14.492 3.93604 16.4682 5.91327 16.4682 8.34286C16.4682 10.7725 14.492 12.7497 12.0614 12.7497H12.0354C10.8587 12.7458 9.75623 12.2848 8.93062 11.4515C8.10307 10.6191 7.65072 9.51377 7.6555 8.33997C7.6555 5.91327 9.63181 3.93604 12.0614 3.93604ZM12.0614 5.38279C10.4295 5.38279 9.10228 6.71092 9.10228 8.34286C9.09941 9.13376 9.40226 9.87353 9.95685 10.432C10.5114 10.9904 11.2503 11.3 12.0373 11.3029L12.0614 12.0263V11.3029C13.6933 11.3029 15.0215 9.97577 15.0215 8.34286C15.0215 6.71092 13.6933 5.38279 12.0614 5.38279ZM18.0307 4.88077C19.7263 5.15951 20.958 6.61013 20.958 8.32984C20.9542 10.0611 19.6607 11.5465 17.9487 11.7866C17.915 11.7915 17.8812 11.7934 17.8484 11.7934C17.4935 11.7934 17.1839 11.532 17.1328 11.1703C17.0778 10.7739 17.3527 10.4084 17.7491 10.3534C18.7522 10.2126 19.5093 9.34257 19.5113 8.32791C19.5113 7.32193 18.7898 6.47124 17.7954 6.30824C17.4019 6.24362 17.1347 5.87132 17.1993 5.47683C17.2649 5.08235 17.6343 4.81808 18.0307 4.88077ZM6.92348 5.47683C6.9881 5.87132 6.72093 6.24362 6.32741 6.30824C5.33301 6.47124 4.61156 7.32193 4.61156 8.32984C4.61349 9.34257 5.37062 10.2135 6.37275 10.3534C6.76916 10.4084 7.04404 10.7739 6.98907 11.1703C6.93795 11.532 6.62834 11.7934 6.2734 11.7934C6.24061 11.7934 6.20685 11.7915 6.17309 11.7866C4.4611 11.5465 3.16866 10.0611 3.1648 8.33177C3.1648 6.61013 4.39647 5.15951 6.09207 4.88077C6.49813 4.81711 6.85789 5.08428 6.92348 5.47683Z" fill="#B1B1B1"/>
</svg>
