<svg width="27" height="27" viewBox="0 0 27 27" fill="none" xmlns="http://www.w3.org/2000/svg">
<g clip-path="url(#clip0_138_2943)">
<path fill-rule="evenodd" clip-rule="evenodd" d="M9.97303 3.38477C12.5147 3.38477 14.9033 4.37294 16.6974 6.16793C20.4059 9.87646 20.4059 15.9099 16.6974 19.6184C14.8794 21.4373 12.4315 22.3998 9.9518 22.3998C8.60002 22.3998 7.23941 22.1141 5.96637 21.5249C5.59127 21.3745 5.24006 21.2329 4.98793 21.2329C4.69775 21.2347 4.30762 21.3692 3.93075 21.4992C3.15755 21.7646 2.19503 22.0955 1.48287 21.386C0.773369 20.6756 1.1007 19.7157 1.36433 18.9434C1.49437 18.563 1.62796 18.1702 1.62796 17.873C1.62796 17.6288 1.5103 17.3174 1.32983 16.8689C-0.327157 13.2904 0.438965 8.97763 3.24955 6.16881C5.04366 4.37382 7.43138 3.38477 9.97303 3.38477ZM9.97391 4.71177C7.78613 4.71177 5.73105 5.56282 4.1873 7.10745C1.76862 9.52436 1.11043 13.2355 2.54801 16.3434C2.75502 16.8556 2.95496 17.3546 2.95496 17.873C2.95496 18.3905 2.77714 18.9116 2.62056 19.3716C2.49139 19.7502 2.29588 20.3217 2.42151 20.4474C2.54447 20.5747 3.11951 20.3739 3.49903 20.2439C3.95463 20.0882 4.47128 19.9095 4.9835 19.9059C5.49661 19.9059 5.98052 20.1006 6.49275 20.3067C9.63066 21.7575 13.3418 21.0976 15.7596 18.6807C18.9498 15.4888 18.9498 10.2967 15.7596 7.10656C14.215 5.56193 12.1608 4.71177 9.97391 4.71177ZM13.4656 12.3754C13.9539 12.3754 14.3503 12.7708 14.3503 13.26C14.3503 13.7493 13.9539 14.1447 13.4656 14.1447C12.9773 14.1447 12.5774 13.7493 12.5774 13.26C12.5774 12.7708 12.9693 12.3754 13.4576 12.3754H13.4656ZM9.91915 12.3754C10.4075 12.3754 10.8038 12.7708 10.8038 13.26C10.8038 13.7493 10.4075 14.1447 9.91915 14.1447C9.43082 14.1447 9.03095 13.7493 9.03095 13.26C9.03095 12.7708 9.42197 12.3754 9.91119 12.3754H9.91915ZM6.37234 12.3754C6.86068 12.3754 7.25701 12.7708 7.25701 13.26C7.25701 13.7493 6.86068 14.1447 6.37234 14.1447C5.88401 14.1447 5.48414 13.7493 5.48414 13.26C5.48414 12.7708 5.87604 12.3754 6.36438 12.3754H6.37234Z" fill="#FBFBFB"/>
</g>
<defs>
<clipPath id="clip0_138_2943">
<rect width="26.455" height="26.455" fill="white" transform="translate(0.464264 0.0786133)"/>
</clipPath>
</defs>
</svg>
