<svg width="16" height="15" viewBox="0 0 16 15" fill="none" xmlns="http://www.w3.org/2000/svg">
<path d="M8.00169 0C3.96744 0 0.666687 3.30075 0.666687 7.335C0.666687 11.3693 3.96744 14.67 8.00169 14.67C12.0359 14.67 15.3367 11.3693 15.3367 7.335C15.3367 3.30075 12.0359 0 8.00169 0ZM8.00169 13.203C4.76695 13.203 2.13369 10.5697 2.13369 7.335C2.13369 4.10027 4.76695 1.467 8.00169 1.467C11.2364 1.467 13.8697 4.10027 13.8697 7.335C13.8697 10.5697 11.2364 13.203 8.00169 13.203ZM8.36844 3.6675H7.26819V8.0685L11.0824 10.4157L11.6692 9.46215L8.36844 7.4817V3.6675Z" fill="#474747"/>
</svg>
