<svg width="47" height="46" viewBox="0 0 47 46" fill="none" xmlns="http://www.w3.org/2000/svg">
<circle cx="23.7283" cy="23.2285" r="22.7323" fill="#7D83D5"/>
<path fill-rule="evenodd" clip-rule="evenodd" d="M20.0618 18.6288C20.0618 16.3755 21.8884 14.549 24.1416 14.549C26.3948 14.549 28.2214 16.3755 28.2214 18.6288C28.2214 20.882 26.3948 22.7086 24.1416 22.7086C21.8884 22.7086 20.0618 20.882 20.0618 18.6288ZM24.1416 15.9889C22.6836 15.9889 21.5017 17.1708 21.5017 18.6288C21.5017 20.0867 22.6836 21.2687 24.1416 21.2687C25.5995 21.2687 26.7815 20.0867 26.7815 18.6288C26.7815 17.1708 25.5995 15.9889 24.1416 15.9889Z" fill="#FBFBFB"/>
<path fill-rule="evenodd" clip-rule="evenodd" d="M20.3017 25.5885C19.1089 25.5885 18.1418 26.5555 18.1418 27.7484V28.8891C18.1418 28.9064 18.1544 28.9212 18.1716 28.924C22.1254 29.5696 26.1577 29.5696 30.1116 28.924C30.1287 28.9212 30.1413 28.9064 30.1413 28.8891V27.7484C30.1413 26.5555 29.1743 25.5885 27.9814 25.5885H27.6542C27.6289 25.5885 27.6037 25.5925 27.5797 25.6003L26.7488 25.8716C25.0547 26.4248 23.2285 26.4248 21.5343 25.8716L20.7035 25.6003C20.6794 25.5925 20.6543 25.5885 20.629 25.5885H20.3017ZM16.7019 27.7484C16.7019 25.7602 18.3136 24.1485 20.3017 24.1485H20.629C20.8061 24.1485 20.9821 24.1765 21.1504 24.2315L21.9813 24.5028C23.385 24.9612 24.8981 24.9612 26.3019 24.5028L27.1327 24.2315C27.3011 24.1765 27.4771 24.1485 27.6542 24.1485H27.9814C29.9695 24.1485 31.5812 25.7602 31.5812 27.7484V28.8891C31.5812 29.6121 31.0572 30.2287 30.3436 30.3452C26.2361 31.0158 22.047 31.0158 17.9396 30.3452C17.2259 30.2287 16.7019 29.6121 16.7019 28.8891V27.7484Z" fill="#FBFBFB"/>
</svg>
