<svg width="47" height="46" viewBox="0 0 47 46" fill="none" xmlns="http://www.w3.org/2000/svg">
<circle cx="23.4759" cy="23.2285" r="22.7323" fill="#7D83D5"/>
<path d="M20.0853 26.7583L21.4804 26.3559L29.8799 17.8557C29.9462 17.7878 29.9831 17.6966 29.9826 17.6017C29.9822 17.5069 29.9444 17.416 29.8775 17.3487L29.3745 16.8401C29.342 16.8067 29.3032 16.7801 29.2603 16.7619C29.2174 16.7437 29.1713 16.7342 29.1247 16.734C29.0781 16.7337 29.0319 16.7428 28.9888 16.7606C28.9458 16.7784 28.9067 16.8047 28.8738 16.8378L20.4965 25.3157L20.0845 26.7575L20.0853 26.7583ZM30.3703 15.8325L30.8733 16.3419C31.5673 17.0445 31.5736 18.1781 30.886 18.8737L22.2306 27.6337L19.2488 28.4924C19.0667 28.5434 18.8719 28.52 18.707 28.4275C18.5422 28.335 18.4208 28.1808 18.3694 27.9989C18.3312 27.8681 18.3307 27.7291 18.3679 27.598L19.2353 24.556L27.8678 15.819C28.0319 15.6537 28.2273 15.5228 28.4426 15.4338C28.6579 15.3448 28.8887 15.2996 29.1217 15.3008C29.3546 15.302 29.585 15.3495 29.7994 15.4407C30.0137 15.5318 30.2078 15.6647 30.3703 15.8317V15.8325ZM21.2451 16.7459C21.638 16.7459 21.9565 17.0683 21.9565 17.466C21.9571 17.56 21.9392 17.6532 21.9038 17.7403C21.8683 17.8273 21.8161 17.9066 21.75 17.9735C21.684 18.0403 21.6054 18.0935 21.5187 18.13C21.4321 18.1665 21.3391 18.1855 21.2451 18.1861H18.3995C17.6137 18.1861 16.9768 18.8309 16.9768 19.6255V28.2651C16.9768 29.0604 17.6137 29.7053 18.3995 29.7053H26.9362C27.722 29.7053 28.3597 29.0604 28.3597 28.2651V25.3855C28.3597 24.9878 28.6782 24.6654 29.0711 24.6654C29.464 24.6654 29.7825 24.9878 29.7825 25.3863V28.2651C29.7825 29.8558 28.5079 31.1455 26.9362 31.1455H18.3995C16.8278 31.1455 15.554 29.8558 15.554 28.2651V19.6255C15.554 18.0355 16.8278 16.7459 18.3995 16.7459H21.2451Z" fill="#FBFBFB"/>
</svg>
