<svg width="222" height="40" viewBox="0 0 222 40" fill="none" xmlns="http://www.w3.org/2000/svg">
<path d="M88.1597 25.4784H80.7987L79.5807 29H75.6884L82.3345 10.4918H86.6504L93.2964 29H89.3776L88.1597 25.4784ZM87.1535 22.5128L84.4792 14.7812L81.8049 22.5128H87.1535ZM99.4876 9.40615V29H95.7806V9.40615H99.4876ZM106.857 16.4493C107.334 15.7786 107.987 15.2225 108.816 14.7812C109.664 14.3223 110.626 14.0928 111.702 14.0928C112.956 14.0928 114.086 14.4017 115.092 15.0195C116.115 15.6373 116.919 16.52 117.501 17.6673C118.101 18.7971 118.401 20.1122 118.401 21.6126C118.401 23.113 118.101 24.4458 117.501 25.6108C116.919 26.7582 116.115 27.6496 115.092 28.2851C114.086 28.9206 112.956 29.2383 111.702 29.2383C110.626 29.2383 109.672 29.0177 108.843 28.5763C108.031 28.135 107.369 27.579 106.857 26.9082V35.9902H103.15V14.3311H106.857V16.4493ZM114.615 21.6126C114.615 20.73 114.43 19.9709 114.059 19.3355C113.706 18.6823 113.229 18.1881 112.629 17.8527C112.047 17.5173 111.411 17.3496 110.723 17.3496C110.052 17.3496 109.417 17.5261 108.816 17.8792C108.234 18.2146 107.757 18.7088 107.387 19.3619C107.033 20.0151 106.857 20.7829 106.857 21.6655C106.857 22.5482 107.033 23.316 107.387 23.9691C107.757 24.6223 108.234 25.1254 108.816 25.4784C109.417 25.8138 110.052 25.9815 110.723 25.9815C111.411 25.9815 112.047 25.805 112.629 25.4519C113.229 25.0989 113.706 24.5958 114.059 23.9427C114.43 23.2895 114.615 22.5128 114.615 21.6126ZM129.356 14.1193C130.468 14.1193 131.457 14.3664 132.322 14.8607C133.187 15.3373 133.858 16.0522 134.334 17.0054C134.829 17.9409 135.076 19.0707 135.076 20.3946V29H131.369V20.8977C131.369 19.7326 131.077 18.8412 130.495 18.2234C129.912 17.5879 129.118 17.2702 128.112 17.2702C127.088 17.2702 126.276 17.5879 125.676 18.2234C125.093 18.8412 124.802 19.7326 124.802 20.8977V29H121.095V9.40615H124.802V16.1581C125.279 15.5226 125.914 15.0284 126.709 14.6753C127.503 14.3046 128.386 14.1193 129.356 14.1193ZM137.648 21.6126C137.648 20.1298 137.939 18.8147 138.521 17.6673C139.122 16.52 139.925 15.6373 140.931 15.0195C141.955 14.4017 143.093 14.0928 144.347 14.0928C145.441 14.0928 146.394 14.3134 147.206 14.7547C148.036 15.196 148.698 15.7521 149.192 16.4229V14.3311H152.925V29H149.192V26.8553C148.715 27.5437 148.053 28.1174 147.206 28.5763C146.377 29.0177 145.414 29.2383 144.32 29.2383C143.084 29.2383 141.955 28.9206 140.931 28.2851C139.925 27.6496 139.122 26.7582 138.521 25.6108C137.939 24.4458 137.648 23.113 137.648 21.6126ZM149.192 21.6655C149.192 20.7653 149.016 19.9974 148.662 19.3619C148.309 18.7088 147.833 18.2146 147.233 17.8792C146.632 17.5261 145.988 17.3496 145.3 17.3496C144.611 17.3496 143.976 17.5173 143.393 17.8527C142.811 18.1881 142.334 18.6823 141.964 19.3355C141.61 19.9709 141.434 20.73 141.434 21.6126C141.434 22.4952 141.61 23.2719 141.964 23.9427C142.334 24.5958 142.811 25.0989 143.393 25.4519C143.993 25.805 144.629 25.9815 145.3 25.9815C145.988 25.9815 146.632 25.8138 147.233 25.4784C147.833 25.1254 148.309 24.6311 148.662 23.9956C149.016 23.3425 149.192 22.5658 149.192 21.6655ZM167.826 17.9851V21.1095H156.599V17.9851H167.826ZM177.729 14.0928C178.823 14.0928 179.785 14.3134 180.615 14.7547C181.444 15.1784 182.098 15.7344 182.574 16.4229V14.3311H186.308V29.1059C186.308 30.4651 186.034 31.6743 185.487 32.7334C184.94 33.8102 184.119 34.6575 183.024 35.2753C181.93 35.9108 180.606 36.2285 179.053 36.2285C176.97 36.2285 175.257 35.7431 173.916 34.7722C172.592 33.8014 171.842 32.4775 171.665 30.8005H175.346C175.54 31.4713 175.955 32.0009 176.59 32.3892C177.243 32.7952 178.029 32.9982 178.947 32.9982C180.023 32.9982 180.897 32.6716 181.568 32.0185C182.239 31.383 182.574 30.4122 182.574 29.1059V26.8288C182.098 27.5172 181.436 28.0909 180.588 28.5499C179.759 29.0088 178.805 29.2383 177.729 29.2383C176.493 29.2383 175.363 28.9206 174.339 28.2851C173.316 27.6496 172.504 26.7582 171.903 25.6108C171.321 24.4458 171.03 23.113 171.03 21.6126C171.03 20.1298 171.321 18.8147 171.903 17.6673C172.504 16.52 173.307 15.6373 174.313 15.0195C175.337 14.4017 176.475 14.0928 177.729 14.0928ZM182.574 21.6655C182.574 20.7653 182.398 19.9974 182.045 19.3619C181.692 18.7088 181.215 18.2146 180.615 17.8792C180.015 17.5261 179.37 17.3496 178.682 17.3496C177.993 17.3496 177.358 17.5173 176.775 17.8527C176.193 18.1881 175.716 18.6823 175.346 19.3355C174.993 19.9709 174.816 20.73 174.816 21.6126C174.816 22.4952 174.993 23.2719 175.346 23.9427C175.716 24.5958 176.193 25.0989 176.775 25.4519C177.376 25.805 178.011 25.9815 178.682 25.9815C179.37 25.9815 180.015 25.8138 180.615 25.4784C181.215 25.1254 181.692 24.6311 182.045 23.9956C182.398 23.3425 182.574 22.5658 182.574 21.6655ZM203.564 21.3478C203.564 21.8774 203.529 22.354 203.458 22.7776H192.735C192.823 23.8368 193.194 24.6664 193.847 25.2666C194.5 25.8667 195.303 26.1668 196.256 26.1668C197.633 26.1668 198.613 25.5755 199.195 24.3928H203.194C202.77 25.805 201.958 26.97 200.758 27.8879C199.557 28.7882 198.083 29.2383 196.336 29.2383C194.924 29.2383 193.653 28.9294 192.523 28.3116C191.411 27.6761 190.537 26.7847 189.902 25.6373C189.284 24.4899 188.975 23.166 188.975 21.6655C188.975 20.1475 189.284 18.8147 189.902 17.6673C190.519 16.52 191.384 15.6373 192.496 15.0195C193.609 14.4017 194.888 14.0928 196.336 14.0928C197.73 14.0928 198.975 14.3929 200.069 14.993C201.181 15.5932 202.037 16.4493 202.638 17.5614C203.255 18.6559 203.564 19.918 203.564 21.3478ZM199.725 20.2887C199.707 19.3355 199.363 18.5764 198.692 18.0116C198.022 17.429 197.201 17.1378 196.23 17.1378C195.312 17.1378 194.535 17.4202 193.9 17.9851C193.282 18.5323 192.902 19.3002 192.761 20.2887H199.725ZM214.399 14.1193C216.146 14.1193 217.559 14.6753 218.635 15.7874C219.712 16.8818 220.251 18.4176 220.251 20.3946V29H216.544V20.8977C216.544 19.7326 216.252 18.8412 215.67 18.2234C215.087 17.5879 214.293 17.2702 213.287 17.2702C212.263 17.2702 211.451 17.5879 210.851 18.2234C210.268 18.8412 209.977 19.7326 209.977 20.8977V29H206.27V14.3311H209.977V16.1581C210.471 15.5226 211.098 15.0284 211.857 14.6753C212.634 14.3046 213.481 14.1193 214.399 14.1193Z" fill="#7D83D5"/>
<path d="M33 20C33 27.8761 26.8136 34 19.5 34C12.1865 34 6 27.8761 6 20C6 12.1239 12.1865 6 19.5 6C26.8136 6 33 12.1239 33 20Z" stroke="#7D83D5" stroke-width="12"/>
<path d="M63 20C63 27.8761 56.8136 34 49.5 34C42.1865 34 36 27.8761 36 20C36 12.1239 42.1865 6 49.5 6C56.8136 6 63 12.1239 63 20Z" stroke="#7D83D5" stroke-width="12"/>
</svg>
