<svg width="17" height="17" viewBox="0 0 17 17" fill="none" xmlns="http://www.w3.org/2000/svg">
<path d="M11.8586 4.38556C11.8586 3.92903 12.2287 3.55893 12.6852 3.55893C13.1418 3.55893 13.5119 3.92903 13.5119 4.38556C13.5119 4.8421 13.1418 5.21219 12.6852 5.21219C12.2287 5.21219 11.8586 4.8421 11.8586 4.38556Z" fill="#474747"/>
<path fill-rule="evenodd" clip-rule="evenodd" d="M8.55208 4.59222C6.38354 4.59222 4.62559 6.35017 4.62559 8.51871C4.62559 10.6873 6.38354 12.4452 8.55208 12.4452C10.7206 12.4452 12.4786 10.6873 12.4786 8.51871C12.4786 6.35017 10.7206 4.59222 8.55208 4.59222ZM5.86554 8.51871C5.86554 7.03497 7.06834 5.83216 8.55208 5.83216C10.0358 5.83216 11.2386 7.03497 11.2386 8.51871C11.2386 10.0025 10.0358 11.2053 8.55208 11.2053C7.06834 11.2053 5.86554 10.0025 5.86554 8.51871Z" fill="#474747"/>
<path fill-rule="evenodd" clip-rule="evenodd" d="M12.8987 0.941008C10.0331 0.620738 7.07105 0.620738 4.20547 0.941008C2.54225 1.1269 1.19952 2.43712 1.00398 4.109C0.661311 7.03882 0.661311 9.9986 1.00398 12.9284C1.19952 14.6003 2.54225 15.9105 4.20547 16.0964C7.07105 16.4167 10.0331 16.4167 12.8987 16.0964C14.5619 15.9105 15.9047 14.6003 16.1002 12.9284C16.4429 9.9986 16.4429 7.03882 16.1002 4.109C15.9047 2.43712 14.5619 1.1269 12.8987 0.941008ZM4.3432 2.17328C7.11724 1.86324 9.98695 1.86324 12.761 2.17328C13.8605 2.29617 14.7413 3.16381 14.8687 4.25304C15.2001 7.08716 15.2001 9.95026 14.8687 12.7844C14.7413 13.8736 13.8605 14.7413 12.761 14.8641C9.98695 15.1742 7.11724 15.1742 4.3432 14.8641C3.24369 14.7413 2.36293 13.8736 2.23553 12.7844C1.90405 9.95026 1.90405 7.08716 2.23553 4.25304C2.36293 3.16381 3.24369 2.29617 4.3432 2.17328Z" fill="#474747"/>
</svg>
