<svg width="61" height="61" viewBox="0 0 61 61" fill="none" xmlns="http://www.w3.org/2000/svg">
<circle cx="30.172" cy="30.172" r="30.172" fill="#7D83D5"/>
<path fill-rule="evenodd" clip-rule="evenodd" d="M28.8908 20.5762C31.1356 19.157 34.1176 18.7649 36.6937 19.5904C42.2974 21.3976 44.0369 27.5066 42.481 32.3676C40.0802 40.0021 29.8268 45.6969 29.3919 45.9358C29.2373 46.0214 29.0661 46.0641 28.8949 46.0641C28.7237 46.0641 28.5539 46.0227 28.3993 45.9385C27.9672 45.7024 17.7883 40.0918 15.3074 32.369C15.306 32.369 15.306 32.3676 15.306 32.3676C13.7487 27.5052 15.4827 21.3948 21.0809 19.5904C23.7095 18.74 26.5742 19.1142 28.8908 20.5762ZM21.716 21.5619C17.1863 23.0225 16.0488 27.8945 17.2788 31.7367C19.2144 37.7587 26.8613 42.6279 28.8935 43.8332C30.9326 42.6155 38.6348 37.6924 40.5082 31.7422C41.7383 27.8959 40.5966 23.0239 36.06 21.5619C33.8622 20.8564 31.2985 21.2858 29.5286 22.6553C29.1586 22.9397 28.645 22.9452 28.2723 22.6636C26.3975 21.254 23.9484 20.8412 21.716 21.5619ZM34.7347 24.3036C36.6164 24.9124 37.9349 26.5787 38.0964 28.5488C38.1419 29.119 37.7181 29.6187 37.1479 29.6643C37.1189 29.667 37.0913 29.6684 37.0623 29.6684C36.5281 29.6684 36.0752 29.2584 36.0311 28.7172C35.9399 27.5824 35.1806 26.6243 34.0996 26.275C33.5543 26.0983 33.2561 25.5143 33.4314 24.9717C33.6095 24.4278 34.188 24.1324 34.7347 24.3036Z" fill="#FBFBFB"/>
</svg>
