<svg width="47" height="46" viewBox="0 0 47 46" fill="none" xmlns="http://www.w3.org/2000/svg">
<circle cx="23.4496" cy="23.2285" r="22.7323" fill="#7D83D5"/>
<g clip-path="url(#clip0_604_2128)">
<path d="M32.2926 13.18C32.3785 13.266 32.4371 13.3753 32.4614 13.4943C32.4856 13.6133 32.4744 13.7369 32.429 13.8496L25.2138 31.8871C25.1502 32.0459 25.044 32.1841 24.9069 32.2865C24.7698 32.3889 24.6072 32.4515 24.4368 32.4674C24.2664 32.4833 24.095 32.4519 23.9413 32.3766C23.7877 32.3014 23.6578 32.1852 23.5659 32.0408L19.6253 25.8473L13.4318 21.9067C13.2871 21.815 13.1706 21.685 13.0951 21.5312C13.0196 21.3774 12.9881 21.2057 13.004 21.0351C13.0199 20.8645 13.0826 20.7016 13.1853 20.5644C13.2879 20.4272 13.4264 20.3211 13.5856 20.2576L31.623 13.0449C31.7357 12.9995 31.8593 12.9882 31.9783 13.0125C32.0974 13.0367 32.2066 13.0954 32.2926 13.1812V13.18ZM20.8628 25.4852L24.2863 30.8641L30.155 16.1931L20.8628 25.4852ZM29.2783 15.3164L14.6073 21.1851L19.9874 24.6073L29.2796 15.3164H29.2783Z" fill="#FBFBFB"/>
</g>
<defs>
<clipPath id="clip0_604_2128">
<rect width="19.8391" height="19.8391" fill="white" transform="translate(13 13)"/>
</clipPath>
</defs>
</svg>
