<svg width="20" height="21" viewBox="0 0 20 21" fill="none" xmlns="http://www.w3.org/2000/svg">
<g clip-path="url(#clip0_475_2066)">
<path d="M10.0472 2.25244C5.48425 2.25244 1.78094 5.95574 1.78094 10.5187C1.78094 15.0817 5.48425 18.785 10.0472 18.785C14.6102 18.785 18.3135 15.0817 18.3135 10.5187C18.3135 5.95574 14.6102 2.25244 10.0472 2.25244ZM3.4342 10.5187C3.4342 10.0145 3.50034 9.51852 3.6078 9.04734L7.55909 12.9986V13.8253C7.55909 14.7346 8.30305 15.4785 9.21235 15.4785V17.0739C5.96369 16.6606 3.4342 13.8831 3.4342 10.5187ZM14.9161 14.9825C14.7012 14.313 14.0895 13.8253 13.3455 13.8253H12.5189V11.3454C12.5189 10.8907 12.1469 10.5187 11.6922 10.5187H6.73246V8.86548H8.38572C8.84036 8.86548 9.21235 8.4935 9.21235 8.03885V6.38559H10.8656C11.7749 6.38559 12.5189 5.64162 12.5189 4.73233V4.39341C14.9409 5.36884 16.6603 7.74953 16.6603 10.5187C16.6603 12.2381 15.9907 13.8087 14.9161 14.9825Z" fill="#474747"/>
</g>
<defs>
<clipPath id="clip0_475_2066">
<rect width="19.8391" height="19.8391" fill="white" transform="translate(0.127686 0.599121)"/>
</clipPath>
</defs>
</svg>
