<svg width="20" height="21" viewBox="0 0 20 21" fill="none" xmlns="http://www.w3.org/2000/svg">
<path fill-rule="evenodd" clip-rule="evenodd" d="M12.5546 3.36294C12.9749 3.29095 13.4455 3.26692 13.8884 3.34184C14.6793 3.47566 15.4099 3.84329 15.9875 4.39445C16.365 4.40299 16.736 4.32861 17.0643 4.22259C17.3421 4.13286 17.5768 4.02451 17.7413 3.93884C17.823 3.89624 17.8862 3.85991 17.9273 3.83531C17.9478 3.82302 17.9627 3.81373 17.9715 3.80812L17.9794 3.80311C18.2247 3.63966 18.5514 3.67147 18.7605 3.87937C18.9696 4.08732 19.0032 4.41377 18.841 4.66003C18.6693 4.92066 18.431 5.38529 18.1639 5.90586C18.1219 5.98772 18.0792 6.07095 18.0359 6.155C17.8828 6.45255 17.7257 6.75329 17.5793 7.01131C17.4874 7.17332 17.3891 7.3378 17.29 7.47993V7.70624C17.2963 8.53752 17.201 9.36447 17.0075 10.169C16.8857 10.6751 16.7251 11.1724 16.5265 11.6563C16.012 12.91 15.2528 14.0487 14.2933 15.0057C13.3339 15.9627 12.1933 16.719 10.9382 17.2303C9.68432 17.7411 8.34126 17.9972 6.98736 17.9836C5.02469 17.9853 3.10329 17.4199 1.4544 16.3552C1.21153 16.1984 1.10928 15.8946 1.20793 15.6228C1.30658 15.3511 1.57994 15.1836 1.86684 15.2191C2.11512 15.2499 2.36511 15.2649 2.61529 15.264C3.51421 15.2615 4.396 15.0629 5.20103 14.6887C4.94514 14.5722 4.70085 14.4286 4.47257 14.2593C3.80158 13.7618 3.30237 13.0675 3.0444 12.273C2.97737 12.0665 3.0232 11.84 3.16522 11.6759C3.16777 11.6729 3.17034 11.67 3.17293 11.6671C3.02122 11.5319 2.87926 11.3846 2.74858 11.2262C2.16058 10.5134 1.83681 9.61948 1.83203 8.69553L1.83201 8.69232L1.83202 8.65099C1.83202 8.43122 1.94837 8.22787 2.13784 8.11651C2.18587 8.08828 2.23677 8.06703 2.28914 8.05278C2.00946 7.49473 1.86402 6.87853 1.86509 6.25338C1.86475 5.54515 2.04975 4.84916 2.4017 4.23455C2.5033 4.05713 2.68585 3.94121 2.88963 3.92469C3.09342 3.90818 3.29225 3.9932 3.42109 4.15195C4.21677 5.13235 5.20979 5.93439 6.33564 6.50598C6.9144 6.79981 7.5216 7.02936 8.14637 7.19174C8.49664 7.28278 8.85243 7.3527 9.21182 7.40099C9.19599 6.80313 9.31406 6.20558 9.56182 5.65345C9.92527 4.8435 10.5473 4.17709 11.3303 3.75874C11.6619 3.58157 12.1021 3.44045 12.5546 3.36294ZM3.23173 9.60192C3.3389 9.90355 3.49833 10.1865 3.70504 10.4371C4.11118 10.9294 4.6749 11.2663 5.30083 11.3908C5.57964 11.4462 5.78501 11.6842 5.79908 11.9681C5.81316 12.2521 5.63233 12.5092 5.36037 12.592C5.13512 12.6605 4.90434 12.7083 4.67094 12.7348C4.82517 12.9336 5.0066 13.1117 5.21112 13.2633C5.67501 13.6073 6.23459 13.7982 6.812 13.8093C7.07397 13.8143 7.30449 13.9835 7.38784 14.2319C7.47118 14.4803 7.38936 14.7543 7.18344 14.9164C6.31617 15.5988 5.3133 16.0746 4.25063 16.3176C5.13139 16.5996 6.0551 16.7448 6.98943 16.7437L6.99663 16.7437C8.18702 16.7561 9.36795 16.5311 10.4704 16.082C11.5729 15.6328 12.5748 14.9685 13.4177 14.1278C14.2606 13.2871 14.9275 12.2869 15.3794 11.1856C15.5539 10.7605 15.6949 10.3237 15.8019 9.879C15.972 9.1716 16.0558 8.44444 16.0501 7.71348L16.0501 7.70863V7.27052C16.0501 7.12019 16.1047 6.97499 16.2037 6.86193C16.261 6.79659 16.3612 6.64568 16.5009 6.39943C16.6337 6.16539 16.7806 5.88441 16.9335 5.5875C16.9427 5.56954 16.952 5.55149 16.9613 5.53336C16.5649 5.61945 16.1156 5.66458 15.6445 5.61367C15.4953 5.59755 15.3571 5.52787 15.2554 5.41757C14.8397 4.96678 14.2861 4.6667 13.6815 4.56442C13.4132 4.51903 13.0889 4.52942 12.764 4.58508C12.4109 4.64556 12.1036 4.75138 11.9146 4.85237C11.3738 5.14134 10.9441 5.60164 10.6931 6.16109C10.442 6.72054 10.3838 7.3475 10.5274 7.94363C10.5732 8.13368 10.5267 8.3342 10.4019 8.48467C10.2771 8.63515 10.0887 8.71794 9.89341 8.70806C9.19621 8.6728 8.50641 8.56645 7.83446 8.39181C7.12364 8.20707 6.4328 7.9459 5.77433 7.6116C4.80488 7.11941 3.92199 6.47704 3.15749 5.71019C3.12262 5.88842 3.10491 6.0703 3.10503 6.25335L3.10503 6.25494C3.10417 6.71018 3.21588 7.15857 3.43024 7.56019C3.64459 7.96181 3.95493 8.30419 4.33362 8.55685C4.56344 8.71019 4.66406 8.9971 4.58036 9.26039C4.49666 9.52369 4.24884 9.69983 3.97266 9.69231C3.72253 9.68551 3.47449 9.65509 3.23173 9.60192Z" fill="#474747"/>
</svg>
