<svg width="47" height="46" viewBox="0 0 47 46" fill="none" xmlns="http://www.w3.org/2000/svg">
<circle cx="23.3551" cy="23.2285" r="22.7323" fill="#7D83D5"/>
<g clip-path="url(#clip0_604_2127)">
<path d="M29.6927 16.8909V26.3971H20.1864V16.8909H29.6927ZM29.6927 15.3065H20.1864C19.315 15.3065 18.602 16.0195 18.602 16.8909V26.3971C18.602 27.2685 19.315 27.9815 20.1864 27.9815H29.6927C30.5641 27.9815 31.277 27.2685 31.277 26.3971V16.8909C31.277 16.0195 30.5641 15.3065 29.6927 15.3065ZM22.9591 22.967L24.2979 24.7573L26.2625 22.3015L28.9005 25.605H20.9786L22.9591 22.967ZM15.4333 18.4753V29.5659C15.4333 30.4373 16.1463 31.1503 17.0177 31.1503H28.1083V29.5659H17.0177V18.4753H15.4333Z" fill="#FBFBFB"/>
</g>
<defs>
<clipPath id="clip0_604_2127">
<rect width="19.0125" height="19.0125" fill="white" transform="translate(13.8489 13.7223)"/>
</clipPath>
</defs>
</svg>
